<?xml version="1.0" standalone="no"?><!DOCTYPE svg PUBLIC "-//W3C//DTD SVG 1.1//EN" "http://www.w3.org/Graphics/SVG/1.1/DTD/svg11.dtd"><svg t="1745746955428" class="icon" viewBox="0 0 1131 1024" version="1.1" xmlns="http://www.w3.org/2000/svg" p-id="7626" xmlns:xlink="http://www.w3.org/1999/xlink" width="220.8984375" height="200"><path d="M235.845304 1023.292818l-16.265194-0.353591-4.596685-2.192266c-5.657459-2.687293-9.334807-6.576796-13.224309-14.072928-3.535912-6.78895-7.566851-10.890608-13.295028-13.5779-3.748066-1.697238-5.233149-1.98011-12.870718-2.192266l-8.698342-0.282873v24.397791l-12.870719-0.42431c-7.001105-0.282873-31.540331-0.495028-54.453038-0.495027H57.98895v-23.195581l-15.699447-0.282873-15.770166-0.212154-4.243094-2.050829c-5.657459-2.758011-8.41547-5.020994-11.314917-9.264088-4.101657-6.152486-4.738122-10.749171-4.455249-31.893923 0.282873-16.053039 0.495028-18.81105 1.697238-22.276243 3.253039-9.122652 10.961326-14.709392 23.266298-16.901658 2.758011-0.495028 8.274033-1.697238 12.375691-2.687292 4.101657-0.919337 9.051934-1.98011 10.961326-2.262984 1.98011-0.282873 7.354696-1.414365 12.022099-2.40442 4.667403-1.060773 12.304972-2.758011 16.972376-3.818784 6.01105-1.343646 7.779006-1.98011 6.152486-2.121547l-2.262983-0.212155v-10.537016h28.216574c25.6 0 28.78232-0.141436 34.086188-1.414365 8.698343-2.050829 14.426519-6.576796 18.245304-14.426519 1.767956-3.60663 1.767956-3.60663 2.262983-32.601105 0.282873-15.911602 0.495028-40.450829 0.565746-54.523757l0.070719-25.529282 2.192265-4.313812c2.687293-5.374586 3.818785-6.576796 16.901657-17.113812 5.728177-4.667403 10.81989-8.910497 11.314917-9.546962 0.495028-0.565746 1.343646-1.060773 1.838674-1.060773 0.565746 0 0.990055-0.282873 0.990056-0.565746s2.758011-2.758011 6.152486-5.445304c3.465193-2.758011 6.718232-5.374586 7.283978-5.869613s2.121547-1.767956 3.323757-2.828729c1.272928-1.060773 3.677348-3.040884 5.374585-4.384531s3.889503-3.818785 4.950276-5.445304c4.243094-6.435359 3.960221-0.777901 5.445304-114.422099 0.777901-57.564641 1.414365-114.634254 1.414365-126.727072v-22.134807h-20.508287l0.141436-31.823204c0.212155-29.913812 0.141436-31.823204-0.990055-31.823204s-1.272928-0.707182-1.272928-5.657459v-5.657459h3.748066c3.323757 0 4.030939-0.282873 6.364641-2.475138 4.738122-4.525967 9.122652-6.152486 17.750276-6.78895 9.829834-0.777901 14.850829-2.899448 19.801105-8.486188 5.58674-6.364641 6.293923-9.122652 6.647514-26.590055l0.282873-15.062983h-8.627624v-5.23315c0-5.091713 0.070718-5.303867 1.767955-5.516022l1.697238-0.212154-1.909392-2.899448c-5.798895-8.839779-10.466298-15.628729-11.59779-16.830939-0.707182-0.777901-1.272928-1.697238-1.272929-2.121547 0-0.353591-0.636464-1.343646-1.343646-2.121547-0.777901-0.848619-2.40442-3.394475-3.748066-5.728177l-2.333702-4.243094-0.212155-58.625414c-0.070718-32.247514 0.070718-58.908287 0.353592-59.120442 0.353591-0.282873 36.490608-0.212155 80.477348 0.070718l79.840884 0.565746 4.596685 1.626519c6.78895 2.40442 12.517127 7.920442 15.133701 14.638674l1.909393 5.020995-0.070719 30.903867c-0.141436 46.037569-0.707182 63.646409-2.192265 66.616575-0.707182 1.343646-1.272928 2.687293-1.272928 3.040884 0 0.495028-3.960221 5.940331-7.920442 10.819889-0.777901 0.919337-4.030939 5.233149-6.223204 8.132597-0.990055 1.343646-2.545856 3.394475-3.535912 4.525967-6.293923 7.708287-6.364641 7.849724-6.364641 12.729282v4.667403h-4.313812l0.212155 15.770166c0.212155 15.628729 0.212155 15.699448 2.262983 20.083977 3.889503 8.486188 10.81989 13.012155 21.639779 14.214365 8.132597 0.848619 13.860773 3.18232 17.962431 7.21326 2.616575 2.616575 3.111602 2.828729 6.647514 2.828729h3.889503l-0.495028 3.748066c-0.212155 1.98011-0.424309 4.525967-0.424309 5.657459 0 1.20221-0.353591 1.909392-1.060774 1.909392-0.919337 0-1.060773 4.030939-1.060773 31.823205v31.823204h-18.952487l-0.424309 8.698343c-0.353591 7.21326-1.485083 182.877348-1.485083 230.329281v14.497238l2.050829 4.596685c2.475138 5.516022 4.596685 7.920442 12.37569 13.931492 3.253039 2.545856 6.293923 4.879558 6.718233 5.233149s2.192265 1.767956 3.960221 3.18232 6.930387 5.516022 11.527071 9.051934c11.527072 8.910497 13.012155 10.041989 19.447514 15.062983 5.869613 4.596685 9.476243 9.19337 10.961326 13.931492 0.636464 2.192265 0.848619 16.123757 0.848619 57.352486v54.453039l1.98011 4.243094c2.475138 5.374586 6.081768 9.051934 11.456354 11.880663l4.243094 2.262983 21.569061 0.353592 21.56906 0.353591 0.353592 5.162431 0.353591 5.233149 2.828729 0.990055c1.555801 0.495028 3.394475 0.990055 4.101658 0.990055 0.777901 0 4.596685 0.919337 8.486187 2.050829 3.960221 1.131492 11.032044 3.040884 15.699448 4.313812 4.667403 1.20221 11.244199 2.970166 14.567956 3.960221 3.323757 0.919337 6.576796 1.697238 7.213259 1.697238 2.758011 0 15.275138 4.525967 18.174586 6.576795 4.596685 3.253039 6.01105 5.020994 9.334807 11.809945 3.18232 6.576796 4.101657 8.486188 5.798895 11.668508 0.565746 1.20221 2.899448 5.940331 5.162431 10.607735 3.960221 8.344751 4.030939 8.627624 4.313812 15.699448 0.212155 6.506077 0.070718 7.637569-1.485083 11.102762-2.545856 5.58674-7.071823 10.183425-12.517127 12.729282-4.243094 1.98011-5.303867 2.121547-13.860774 2.40442l-9.264088 0.282873-0.495028 11.385635c-0.212155 6.223204-0.495028 11.385635-0.636464 11.456354-0.070718 0.070718-24.539227 0-54.38232-0.212155l-54.311602-0.353591v-23.124862h-12.941437c-9.829834 0-13.931492 0.282873-16.830939 1.131492-6.78895 1.98011-11.59779 6.435359-16.123757 14.921547-3.748066 6.930387-6.859669 10.112707-12.446409 12.870718l-4.38453 2.192265-92.570166-0.141436c-50.917127-0.070718-99.854144-0.282873-108.835359-0.565746zM707.889503 929.449724c-2.899448-3.323757-6.576796-7.425414-8.132597-9.051934s-4.596685-4.950276-6.718232-7.425414c-2.121547-2.40442-5.162431-5.728177-6.718232-7.354696s-6.78895-7.425414-11.668508-12.8c-10.324862-11.59779-13.577901-15.275138-16.972376-18.81105-1.343646-1.414365-4.243094-4.596685-6.364641-7.001105-2.121547-2.475138-4.80884-5.516022-6.01105-6.718232-5.869613-6.081768-10.254144-11.244199-10.041989-11.880663 0.070718-0.353591 2.262983-1.767956 4.738122-3.111602 2.545856-1.414365 5.445304-3.111602 6.506077-3.818785 0.990055-0.777901 2.333702-1.343646 2.899448-1.343646 0.636464 0 1.272928-0.282873 1.555801-0.636464 0.495028-0.919337 9.61768-5.728177 10.678453-5.728177 0.495028 0 2.121547 2.475138 3.677348 5.516022 1.555801 2.970166 5.091713 9.900552 7.920442 15.345856s7.142541 13.719337 9.546961 18.386741c2.40442 4.738122 4.80884 9.334807 5.303868 10.254143 0.495028 0.990055 1.272928 2.40442 1.626519 3.182321 0.424309 0.777901 2.616575 5.091713 4.950276 9.546961 2.262983 4.455249 4.80884 9.405525 5.586741 10.961326s1.909392 3.60663 2.40442 4.596685c0.565746 0.990055 2.899448 5.516022 5.233149 10.112707s4.667403 9.051934 5.303867 9.900553c1.131492 1.555801 1.414365 4.101657 0.565746 3.960221-0.353591 0-2.970166-2.758011-5.869613-6.081768z" fill="#2C5E8E" p-id="7627"></path><path d="M103.107182 859.862983c-6.152486-5.303867-8.203315-7.142541-10.678453-9.476243-0.848619-0.777901-6.293923-5.516022-12.163536-10.537016-5.798895-4.950276-11.385635-9.829834-12.37569-10.749172-0.990055-0.848619-3.040884-2.758011-4.596685-4.101657s-3.465193-3.111602-4.243094-3.818785-7.425414-6.506077-14.850829-12.870718c-7.354696-6.364641-14.214365-12.304972-15.20442-13.224309-4.455249-4.101657-6.78895-6.152486-17.538121-15.416575-6.506077-5.58674-11.456354-10.39558-11.456354-11.032044 0-0.777901 1.767956-2.333702 4.313812-3.960221 4.950276-3.040884 5.657459-3.535912 12.729282-8.344751 2.899448-1.909392 5.58674-3.677348 5.940331-3.889503 0.424309-0.212155 3.040884-1.98011 5.940332-3.889503 2.899448-1.98011 5.728177-3.889503 6.364641-4.243094 0.636464-0.424309 3.465193-2.262983 6.293922-4.101657s5.374586-3.253039 5.657459-3.040884c0.636464 0.353591 0.777901 0.777901 11.102762 21.99337 4.596685 9.334807 8.698343 17.750276 9.193371 18.740331 1.131492 2.192265 3.18232 6.152486 4.313812 8.486188 0.495028 0.990055 1.414365 2.899448 2.121547 4.243094s1.626519 3.253039 2.121547 4.243094 1.414365 2.899448 2.121547 4.243094 1.626519 3.253039 2.121547 4.243094 1.414365 2.899448 2.121547 4.243094 1.626519 3.253039 2.121547 4.243094 1.343646 2.758011 1.98011 3.889503c2.687293 5.091713 23.761326 48.300552 23.761326 48.654143 0 1.20221-1.767956 0.070718-7.21326-4.525967zM746.78453 789.99337c-1.343646-0.282873-5.162431-1.343646-8.486187-2.40442-10.678453-3.253039-20.861878-6.152486-21.498343-6.152486-0.353591 0-3.889503-0.990055-7.779006-2.192265-10.890608-3.253039-20.79116-6.081768-25.882872-7.354696-2.545856-0.636464-5.869613-1.555801-7.425415-2.121547-1.555801-0.495028-5.657459-1.697238-9.19337-2.758011-3.465193-0.990055-9.19337-2.616575-12.729282-3.677348-3.465193-0.990055-7.637569-2.121547-9.19337-2.40442-1.555801-0.353591-4.738122-1.272928-7.071823-2.050829-2.333702-0.707182-6.223204-1.838674-8.627624-2.475138-8.839779-2.192265-14.921547-6.78895-17.962431-13.436464-2.050829-4.525967-1.767956-11.951381 0.707182-20.154696 2.333702-7.566851 5.940331-19.801105 12.8-43.562431 7.071823-24.680663 7.849724-26.236464 16.265193-32.247514 2.40442-1.697238 5.58674-4.030939 7.071824-5.233149 1.485083-1.131492 4.525967-3.394475 6.718232-4.950276 6.081768-4.313812 7.142541-5.445304 8.486187-9.476244 0.919337-2.758011 1.485083-3.60663 2.262984-3.323756 1.485083 0.565746 3.040884-0.848619 3.040884-2.687293 0-0.919337 0.777901-3.960221 1.767956-6.859669 3.253039-9.334807 4.172376-15.20442 3.111602-19.942541-1.485083-7.21326-5.798895-11.668508-15.062984-15.699448-5.940331-2.616575-9.546961-5.445304-11.880663-9.617679-1.060773-1.838674-2.192265-2.828729-4.172375-3.394475-1.626519-0.495028-2.758011-1.272928-2.758011-1.909393 0-2.050829 2.262983-8.061878 3.111602-8.061878 0.424309 0 1.697238-3.111602 2.828729-6.930387 5.728177-19.58895 9.971271-34.086188 11.456354-39.60221l1.20221-4.38453 2.545856 0.424309c2.262983 0.424309 10.041989 2.616575 12.446409 3.535912 0.565746 0.212155 1.343646-1.555801 2.40442-5.162431 1.626519-5.869613 3.960221-13.931492 7.283978-25.317127 1.131492-3.889503 2.970166-10.254144 4.101657-14.143647 1.060773-3.889503 3.040884-10.537017 4.313812-14.850828 2.545856-8.769061 5.091713-17.679558 8.344752-28.782321 5.58674-19.447514 6.506077-22.629834 8.556906-29.560221 4.243094-14.638674 9.476243-32.671823 12.37569-42.78453 1.555801-5.445304 3.748066-13.082873 7.849724-26.872928 4.950276-16.901657 5.162431-18.38674 3.394475-24.327072-0.990055-3.323757-6.01105-11.244199-11.17348-17.467403-0.990055-1.272928-1.838674-2.545856-1.838674-2.970166s-0.282873-0.848619-0.565746-0.990055c-0.565746-0.212155-5.657459-6.718232-7.920442-10.112708-0.565746-0.848619-1.626519-2.333702-2.333702-3.253038-6.293923-8.344751-10.39558-14.355801-11.809945-17.255249-2.616575-5.374586-2.687293-10.607735-0.353591-18.316022 2.828729-9.476243 5.58674-18.881768 8.132597-27.650829 1.272928-4.243094 3.18232-10.81989 4.243094-14.497237s2.970166-10.183425 4.243094-14.497238c1.272928-4.243094 3.253039-10.81989 4.38453-14.567956 2.828729-8.981215 2.616575-13.436464-0.919337-19.447514-2.828729-4.80884-8.203315-8.910497-13.365746-10.183425-2.899448-0.707182-7.071823-1.909392-22.771271-6.435359-3.040884-0.848619-5.516022-1.626519-5.516022-1.767956 0-0.070718 0.495028-1.485083 1.060774-3.111602 1.485083-4.243094 1.343646-5.233149-0.848619-6.223205-1.131492-0.495028-3.748066-1.909392-5.869613-3.253038-4.101657-2.616575-10.324862-6.223204-13.790055-8.132597-1.131492-0.636464-3.465193-2.050829-5.091713-3.111602-1.697238-1.060773-3.18232-1.909392-3.394475-1.909392-0.282873 0-1.838674-0.919337-3.535912-2.121547-1.697238-1.131492-3.323757-2.121547-3.535911-2.121547-0.282873 0-1.343646-0.565746-2.333702-1.343647-1.060773-0.707182-3.465193-2.192265-5.445304-3.253038-1.909392-1.060773-3.818785-2.333702-4.243094-2.758011-0.353591-0.495028-1.20221-1.060773-1.767956-1.272929-1.767956-0.636464-6.293923-9.051934-6.718232-12.517127-0.212155-1.767956-1.343646-8.274033-2.475138-14.426519-3.60663-18.881768-2.828729-24.539227 4.172376-31.61105 2.545856-2.545856 4.38453-3.60663 8.415469-4.879558 5.516022-1.767956 8.41547-1.767956 14.850829 0.212155 7.779006 2.40442 7.425414 2.545856 9.688398-4.38453 1.131492-3.394475 2.192265-7.283978 2.40442-8.627625 0.353591-2.121547 0.777901-2.545856 2.545856-2.758011 1.20221-0.070718 5.303867 0.777901 9.19337 1.980111 3.889503 1.131492 10.607735 3.111602 14.850829 4.313812 4.313812 1.20221 11.032044 3.18232 15.062983 4.313812 3.960221 1.131492 10.537017 3.040884 14.638675 4.172376 35.429834 10.112707 32.954696 9.334807 32.601104 10.537016-0.212155 0.636464-0.848619 3.18232-1.414364 5.728177s-1.555801 6.01105-2.121547 7.708287c-0.636464 1.697238-1.131492 3.323757-1.131492 3.677348 0 0.282873 2.121547 1.20221 4.80884 1.980111 2.616575 0.777901 7.142541 2.192265 10.041989 3.040884 10.324862 3.111602 17.043094 1.343646 24.822099-6.435359 2.192265-2.192265 4.525967-4.38453 5.162431-4.879558 4.879558-3.889503 14.355801-4.243094 25.670719-0.919337 7.21326 2.121547 11.527072 3.394475 29.560221 8.556906 4.101657 1.20221 10.81989 3.111602 15.062983 4.313812 4.172376 1.20221 10.607735 3.040884 14.285083 4.172376s8.132597 2.192265 9.900552 2.475138c4.738122 0.707182 10.607735 2.475138 10.607735 3.253039 0 0.353591 0.707182 0.636464 1.555801 0.636464s4.596685 0.919337 8.274033 2.050828c6.718232 2.050829 14.426519 4.313812 29.418785 8.556906 4.313812 1.20221 10.466298 2.970166 13.790055 3.889503s9.546961 2.687293 13.790055 3.889503c12.8 3.60663 15.20442 4.455249 15.982321 5.445304 0.424309 0.495028 1.20221 0.919337 1.697237 0.919337 2.475138 0 8.698343 10.81989 8.910498 15.345856 0.070718 3.18232 2.616575 8.769061 5.233149 11.668508 3.040884 3.253039 8.627624 6.364641 13.790055 7.496133 1.767956 0.424309 3.677348 0.919337 4.313812 1.20221 1.131492 0.424309 1.626519-0.919337 5.303868-14.285083 0.636464-2.475138 1.272928-4.455249 1.343646-4.455248s2.899448 0.990055 6.364641 2.121546c3.465193 1.20221 6.718232 2.121547 7.354696 2.121547 0.565746 0 4.101657 0.919337 7.779006 2.050829 9.546961 2.899448 16.548066 4.950276 22.700552 6.506078 2.899448 0.777901 7.071823 1.98011 9.264088 2.758011 2.121547 0.777901 4.455249 1.414365 5.020995 1.414364 0.636464 0 3.677348 0.777901 6.718232 1.697238 9.334807 2.899448 15.98232 4.80884 19.518232 5.58674 1.838674 0.424309 3.323757 1.131492 3.323757 1.626519 0 0.424309-0.495028 2.192265-1.131492 3.889503s-1.555801 5.020994-2.121547 7.354696-1.20221 4.950276-1.414364 5.798895c-0.353591 1.343646 0 1.626519 2.616574 2.333702 1.697238 0.424309 6.152486 1.697238 9.900553 2.899448 3.677348 1.131492 7.354696 2.050829 8.132596 2.050828 1.838674 0 8.627624 4.80884 10.607735 7.496133 3.253039 4.525967 3.818785 6.364641 3.818785 13.082873 0 5.233149-0.424309 7.920442-2.050829 13.295027-1.131492 3.748066-3.111602 10.254144-4.455249 14.497238-2.970166 9.829834-6.223204 14.00221-13.507182 17.255249-2.899448 1.272928-18.38674 1.060773-40.450829-0.565746-23.19558-1.697238-21.922652-1.697238-22.064088-0.141437-0.070718 1.909392-1.414365 7.920442-1.838674 8.344752-0.212155 0.212155-2.545856-0.282873-5.233149-1.060774-2.616575-0.777901-8.274033-2.40442-12.587846-3.60663-4.243094-1.20221-10.961326-3.111602-14.850828-4.243094-14.921547-4.313812-18.457459-4.738122-24.39779-3.253038-8.41547 2.192265-13.507182 7.637569-16.053039 17.043094-0.424309 1.555801-1.767956 6.364641-3.040884 10.607734-1.20221 4.313812-3.18232 10.961326-4.243094 14.850829-1.131492 3.889503-3.040884 10.39558-4.243094 14.497238s-3.111602 10.749171-4.313812 14.850828-3.111602 10.466298-4.243094 14.214365c-1.131492 3.677348-2.050829 7.142541-2.050829 7.708287 0 2.687293-8.769061 12.022099-11.244199 12.0221-0.424309 0-2.758011 0.919337-5.162431 2.050829-2.475138 1.131492-6.859669 3.111602-9.759116 4.38453s-7.21326 3.18232-9.546961 4.243094-6.435359 2.899448-9.19337 4.030939c-11.739227 5.020994-15.98232 7.142541-18.316022 9.19337-2.899448 2.545856-6.435359 8.627624-7.142542 12.163536-0.282873 1.343646-1.343646 5.516022-2.475138 9.19337s-2.970166 9.900552-4.101657 13.790056c-1.909392 6.506077-2.970166 9.971271-8.839779 29.701657-1.131492 3.889503-3.040884 10.254144-4.172376 14.143647s-2.970166 10.112707-4.030939 13.790055c-1.131492 3.677348-2.970166 9.900552-4.101658 13.790055-2.050829 6.78895-2.970166 9.900552-8.061878 27.58011-1.20221 4.313812-3.111602 10.678453-4.172376 14.143647-1.060773 3.535912-2.970166 9.900552-4.172375 14.143646-1.272928 4.313812-3.18232 10.81989-4.313813 14.497238-1.060773 3.677348-3.040884 10.254144-4.243093 14.497237-1.272928 4.313812-3.040884 10.112707-3.960221 13.012155s-1.626519 5.303867-1.485083 5.374586c0.636464 0.565746 13.860773 4.596685 14.850828 4.596685 1.697238 0 1.555801 1.414365-0.990055 9.900552-10.961326 36.773481-12.375691 41.935912-11.314917 42.289503s0.990055 2.121547-0.353591 6.01105c-1.20221 3.535912-1.485083 3.677348-5.091713 2.687293-1.909392-0.565746-2.899448-0.424309-5.303867 0.848618-3.111602 1.555801-5.798895 1.767956-22.41768 1.20221-6.718232-0.282873-6.718232-0.282873-10.819889 2.333702-4.313812 2.758011-9.688398 9.900552-9.688398 12.870718 0 0.848619-0.919337 4.172376-1.980111 7.496133-1.131492 3.253039-2.262983 7.283978-2.475138 8.910497-0.495028 2.970166-0.495028 2.970166 1.980111 3.465193 1.343646 0.212155 2.687293 0.707182 2.899447 1.060774s0 2.545856-0.495027 4.950276c-0.777901 3.960221-0.990055 4.243094-2.545857 3.960221-1.060773-0.212155-1.626519 0-1.414364 0.495028 2.40442 6.152486 8.344751 25.034254 8.839779 28.00442 0.848619 4.738122 0.141436 9.900552-2.687293 19.093922-1.131492 3.677348-3.040884 10.254144-4.243094 14.497238-1.20221 4.313812-3.111602 10.81989-4.172376 14.497238-2.333702 7.779006-4.80884 16.40663-7.779005 26.872928-7.425414 25.882873-6.293923 23.690608-11.385636 22.700552zM863.752486 658.598895c0.282873-0.990055 1.343646-3.18232 2.40442-4.738122 2.333702-3.60663 3.040884-4.667403 6.152486-9.97127 1.414365-2.333702 3.818785-6.152486 5.303868-8.486188 1.555801-2.333702 3.111602-4.950276 3.535911-5.869613 0.353591-0.919337 1.485083-2.687293 2.475138-3.960221s1.767956-2.545856 1.767956-2.82873 0.919337-1.838674 1.980111-3.465193 2.333702-3.60663 2.758011-4.38453c1.20221-1.98011 10.112707-16.618785 14.285083-23.337017 4.38453-7.071823 8.627624-14.072928 9.900552-16.548066 0.565746-0.990055 1.20221-1.98011 1.485083-2.192265s1.343646-1.909392 2.40442-3.889503c1.131492-1.909392 2.40442-4.030939 2.899447-4.596685 0.424309-0.565746 1.626519-2.40442 2.475138-4.03094 1.838674-3.323757 2.828729-3.748066 3.889503-1.697237 0.636464 1.20221 2.899448 5.233149 11.527072 20.79116 8.910497 15.911602 9.476243 17.043094 8.981216 18.245304-0.212155 0.565746-2.192265 2.262983-4.455249 3.818785-2.192265 1.485083-4.313812 3.040884-4.738122 3.323756-0.353591 0.282873-2.050829 1.626519-3.606629 2.82873-1.626519 1.272928-4.80884 3.60663-7.001105 5.162431-2.262983 1.555801-4.525967 3.323757-5.162431 3.889502-0.565746 0.565746-1.767956 1.555801-2.687293 2.121547-3.535912 2.333702-13.082873 9.334807-13.931492 10.183426-0.495028 0.495028-1.555801 1.272928-2.40442 1.697237-0.777901 0.424309-2.192265 1.485083-3.111602 2.262984-3.18232 2.758011-14.143646 10.607735-14.78011 10.607735-0.282873 0-0.707182 0.282873-0.848619 0.636464-0.212155 0.565746-7.21326 5.940331-13.153591 10.112707-1.272928 0.919337-3.60663 2.687293-5.23315 3.960221-1.555801 1.20221-2.970166 2.262983-3.18232 2.262983s-0.141436-0.848619 0.070718-1.909392zM98.510497 443.686188c-10.607735-10.607735-19.306077-19.518232-19.306077-19.730387 0-0.141436 2.050829-2.970166 4.596685-6.152486 2.545856-3.253039 5.374586-6.78895 6.223204-7.920442 0.848619-1.060773 2.545856-3.18232 3.677348-4.667403 1.20221-1.485083 3.253039-4.172376 4.596686-5.940332 1.343646-1.838674 4.101657-5.303867 6.011049-7.779005 1.98011-2.475138 5.798895-7.425414 8.486188-11.032045 2.758011-3.60663 5.516022-7.21326 6.152486-8.061878 2.545856-3.111602 5.940331-7.496133 8.344752-10.607735 1.343646-1.838674 4.101657-5.303867 6.011049-7.779005 1.98011-2.475138 5.798895-7.425414 8.486188-11.032045 2.758011-3.60663 5.445304-7.071823 6.01105-7.708287 0.848619-0.990055 3.535912-4.455249 8.274033-10.607735 0.141436-0.141436 0.424309-0.070718 0.707182 0.141437 0.212155 0.282873-0.212155 2.828729-1.060773 5.657458-3.465193 11.951381-4.525967 15.911602-5.445304 19.588951-0.495028 2.121547-1.555801 6.152486-2.333702 8.839779-3.323757 11.173481-5.233149 17.891713-6.152486 21.56906-0.495028 2.121547-1.555801 6.293923-2.475138 9.193371-0.848619 2.899448-2.475138 8.486188-3.535911 12.37569-1.131492 3.889503-2.828729 9.971271-3.889503 13.436464-1.060773 3.535912-2.333702 8.132597-2.82873 10.254144s-1.555801 6.293923-2.404419 9.19337c-3.111602 10.537017-5.657459 19.518232-6.859669 23.902763-0.636464 2.40442-1.414365 4.313812-1.626519 4.313812-0.212155-0.070718-9.122652-8.769061-19.659669-19.447514z" fill="#2C5E8E" p-id="7628"></path><path d="M322.970166 960.141436l0.424309-63.929281-11.244199-0.42431c-6.152486-0.282873-28.145856-0.495028-48.79558-0.495027s-68.596685-0.212155-106.572376-0.495028l-69.091712-0.424309v-10.607735l37.339226 0.495027c20.508287 0.212155 73.405525 0.636464 117.60442 0.919337l80.40663 0.42431 0.353591-17.255249c0.282873-9.476243 0.777901-83.942541 1.20221-165.409944s1.060773-189.171271 1.485083-239.310498c0.353591-50.139227 0.565746-91.226519 0.495028-91.297237-0.141436-0.141436-25.104972-0.282873-55.513813-0.42431l-55.372375-0.282873v-11.17348l5.516022 0.495027c2.970166 0.212155 27.933702 0.636464 55.513812 0.919337l49.99779 0.42431v-29.418785c0-16.123757 0.212155-29.843094 0.424309-30.479558 0.424309-0.990055-2.758011-1.131492-32.530386-1.131491h-32.954696v-10.324862l32.883977 0.282873 32.883978 0.353591v-49.856354c0-27.438674 0.212155-61.807735 0.495028-76.446409l0.424309-26.660773h9.759116l-0.495027 76.37569-0.495028 76.375691h29.065194c15.911602 0 29.489503 0.212155 30.125966 0.424309 0.848619 0.353591 1.131492 1.485083 1.131492 5.23315v4.879558l-29.913812-0.42431-29.98453-0.424309-0.42431 10.819889c-0.282873 5.940331-0.495028 19.659669-0.495027 30.40884v19.58895l46.603314 0.565746c25.6 0.282873 50.139227 0.282873 54.523757 0l7.920442-0.495027-0.495027 5.516022c-0.282873 3.111602-0.565746 5.58674-0.636464 5.58674 0 0-24.256354-0.212155-53.745857-0.495028-29.560221-0.282873-53.816575-0.424309-53.887293-0.353591s-0.495028 63.787845-0.919337 141.577901-1.131492 193.272928-1.555801 256.565746c-0.424309 63.363536-0.565746 115.341436-0.424309 115.482873s48.937017 0.424309 108.41105 0.495027l108.128176 0.212155 0.212155 5.162431 0.212155 5.233149-108.481768-0.565746-108.481768-0.495027-0.495028 50.068508c-0.212155 27.58011-0.495028 56.433149-0.636464 64.070718l-0.141436 14.00221h-10.112707l0.353591-63.858564zM677.339227 770.333702c-2.687293-0.919337-3.253039-1.343646-2.758012-2.262984 0.495028-0.990055 5.940331-19.093923 8.910498-29.772375 1.20221-4.243094 13.860773-48.088398 17.043094-58.908288 6.576796-22.41768 9.334807-32.671823 8.910497-33.096132-0.282873-0.282873-7.496133-2.40442-16.053039-4.80884-22.983425-6.435359-30.338122-8.698343-31.045304-9.334807s1.343646-8.41547 2.121547-8.415469c0.212155 0 1.272928 0.495028 2.262984 1.060773 1.909392 1.060773 43.279558 13.082873 45.047514 13.082873 0.495028 0 1.20221-1.20221 1.555801-2.616575 0.424309-1.485083 2.899448-9.971271 5.516022-18.952486 6.01105-20.649724 7.425414-25.6 7.425414-26.448619 0-0.707182-1.909392-1.343646-14.497237-4.950276-46.81547-13.436464-64.990055-18.457459-66.40442-18.457458-2.616575 0-6.081768-1.485083-6.081768-2.616575 0-0.565746 0.495028-2.545856 1.131491-4.525967 1.131492-3.394475 2.121547-4.172376 3.535912-2.758011 0.353591 0.353591 4.80884 1.838674 9.829834 3.253039 5.091713 1.414365 12.234254 3.465193 15.911602 4.525967 3.677348 1.131492 17.043094 4.950276 29.701658 8.486188s24.39779 6.930387 26.095028 7.496132c1.767956 0.495028 3.253039 0.919337 3.323756 0.777901 0.141436-0.141436 1.343646-4.101657 2.758011-8.839779 1.343646-4.738122 3.60663-12.517127 5.020995-17.255249 1.343646-4.80884 4.172376-14.567956 6.293923-21.781215 6.930387-24.044199 13.153591-45.542541 15.699447-54.099448 1.343646-4.667403 4.80884-16.618785 7.637569-26.519337s6.647514-23.124862 8.486188-29.348066 5.798895-19.871823 8.839779-30.40884c5.940331-20.579006 11.951381-41.370166 19.518232-67.18232 2.545856-8.910497 4.950276-17.18453 5.233149-18.386741 0.282873-1.131492 1.697238-5.940331 3.040884-10.607735 1.414365-4.667403 4.596685-15.770166 7.21326-24.751381 2.545856-8.910497 5.798895-20.083978 7.21326-24.751381 4.950276-16.901657 10.324862-35.429834 11.527071-39.955801 1.485083-5.58674 7.920442-27.58011 9.900553-34.01547 0.777901-2.545856 1.414365-5.020994 1.414365-5.445304s-1.838674-1.343646-4.03094-1.909392c-4.172376-1.131492-12.658564-3.60663-25.812154-7.425414-4.030939-1.131492-16.830939-4.738122-28.499448-8.061879s-33.59116-9.546961-48.79558-13.931491c-15.133702-4.313812-28.994475-8.203315-30.762431-8.556906-6.859669-1.485083-11.880663-2.828729-31.328177-8.41547-3.535912-1.060773-5.374586-1.909392-5.162431-2.475138 0.141436-0.424309 0.707182-2.262983 1.20221-3.889503 0.495028-1.697238 0.990055-3.18232 1.060774-3.323757 0.141436-0.282873 7.283978 1.555801 14.78011 3.748066 3.111602 0.919337 9.051934 2.687293 13.295028 3.818785 13.507182 3.889503 22.276243 6.364641 29.701657 8.556906 3.960221 1.131492 16.901657 4.80884 28.782321 8.132597 11.880663 3.394475 30.479558 8.698343 41.370166 11.809944 33.166851 9.476243 46.603315 13.224309 46.815469 13.012155 0.070718-0.070718 2.262983-7.425414 4.80884-16.335911 2.616575-8.981215 5.798895-20.083978 7.21326-24.751382 1.343646-4.667403 4.80884-16.618785 7.637569-26.519337 2.899448-9.900552 5.798895-19.942541 6.576795-22.276243s1.98011-6.293923 2.616575-8.839779c0.707182-2.545856 1.343646-4.667403 1.485083-4.80884 0.070718-0.141436 1.909392 0.282873 4.172375 0.919337 3.111602 0.919337 3.960221 1.485083 3.677348 2.333702-0.141436 0.707182-2.475138 8.556906-5.020994 17.467403-18.103867 61.878453-24.751381 85.21547-24.39779 85.498343 0.141436 0.070718 9.971271 2.970166 21.851934 6.293923 11.880663 3.394475 24.892818 7.142541 28.994475 8.274033 35.429834 10.254144 124.534807 35.429834 128.707182 36.419889 10.961326 2.545856 9.829834 1.555801 8.627624 7.637569-0.353591 1.838674-0.848619 3.535912-1.060773 3.748067s-2.545856-0.282873-5.233149-1.060774c-2.616575-0.777901-8.274033-2.40442-12.587846-3.60663-4.243094-1.20221-10.81989-3.111602-14.567955-4.313812-3.677348-1.131492-7.283978-2.050829-7.991161-2.050829-0.636464 0-2.545856-0.636464-4.172375-1.343646-2.970166-1.343646-8.41547-3.040884-22.559116-7.071823-14.638674-4.172376-22.559116-6.435359-29.701658-8.556906-4.030939-1.131492-20.296133-5.728177-36.278453-10.254144-31.045304-8.769061-40.521547-11.456354-49.57348-14.214365-3.18232-0.919337-6.081768-1.697238-6.506078-1.697237-0.848619 0-0.636464-0.777901-14.709392 48.088398-1.767956 6.01105-4.667403 15.911602-6.435359 21.922652-1.697238 6.01105-5.728177 19.730387-8.769061 30.408839-6.506077 22.346961-11.59779 39.885083-17.113812 59.049724-7.354696 25.175691-9.051934 31.116022-13.648619 47.027624-2.545856 8.769061-5.728177 19.730387-7.142541 24.397791-1.343646 4.667403-4.950276 17.113812-7.991161 27.58011-3.040884 10.537017-7.283978 25.175691-9.405524 32.530387-6.01105 20.649724-11.456354 39.390055-14.285083 49.149171-1.414365 4.879558-4.667403 15.98232-7.142542 24.751381-2.545856 8.769061-5.728177 19.730387-7.142541 24.39779-1.343646 4.667403-3.535912 12.022099-4.80884 16.40663l-2.262983 7.920442 2.192265 0.707182c6.152486 2.050829 84.225414 24.114917 84.861878 24.044199 2.899448-0.353591 3.18232 0.777901 1.414365 6.01105-1.131492 3.394475-1.20221 3.394475-3.748066 2.899448-1.414365-0.282873-3.323757-0.919337-4.313813-1.485083s-20.01326-6.223204-42.218784-12.517127c-33.803315-9.61768-40.592265-11.385635-40.80442-10.466299-3.960221 13.648619-6.364641 21.922652-8.556906 29.418785-1.414365 5.091713-3.18232 11.102762-3.960221 13.365746-0.707182 2.333702-1.343646 4.455249-1.343646 4.738121 0 0.636464-0.282873 0.565746 24.751381 7.566851 11.102762 3.111602 21.639779 5.869613 23.478453 6.152486 1.838674 0.212155 3.535912 0.707182 3.748066 1.060774 0.212155 0.424309 0.070718 2.616575-0.424309 4.950276-0.919337 4.596685-1.485083 5.020994-4.738122 3.253039-1.060773-0.565746-5.303867-2.050829-9.476243-3.182321-9.476243-2.758011-19.58895-5.657459-30.620994-8.769061-4.667403-1.343646-8.698343-2.262983-8.981216-1.98011-0.212155 0.212155-1.414365 3.748066-2.545856 7.849724-1.20221 4.101657-2.970166 10.324862-4.030939 13.790055-0.990055 3.535912-3.889503 13.365746-6.364641 21.922652s-5.303867 18.457459-6.364641 21.922652c-0.990055 3.535912-3.889503 13.507182-6.435359 22.276243s-5.020994 17.325967-5.586741 19.093923c-0.495028 1.767956-1.767956 5.940331-2.828729 9.405524-0.990055 3.465193-2.192265 6.152486-2.687293 6.081768-0.495028 0-2.333702-0.495028-4.172375-1.131491z" fill="#FDFDFE" p-id="7629"></path></svg>